<svg width="22" height="22" viewBox="0 0 22 22" fill="none" xmlns="http://www.w3.org/2000/svg">
<g clip-path="url(#clip0_1029_12895)">
<path opacity="0.925" fill-rule="evenodd" clip-rule="evenodd" d="M19.7656 6.35938C19.1548 6.45779 18.5819 6.68693 18.0469 7.04688C17.4609 6.46522 16.7734 6.00689 15.9844 5.67188C15.7829 5.74382 15.6111 5.85839 15.4688 6.01562C14.4964 5.23817 14.439 4.43609 15.2969 3.60938C14.9369 3.07436 14.7078 2.50144 14.6094 1.89062C15.7282 1.31894 16.874 0.74602 18.0469 0.171875C18.9946 0.759285 20.0259 1.16033 21.1406 1.375C21.1235 2.78743 21.1808 4.21974 21.3125 5.67188C20.7548 5.87775 20.2391 6.10693 19.7656 6.35938ZM17.3594 2.57812C18.9607 2.41128 19.4191 3.04149 18.7344 4.46875C17.0941 4.74732 16.6357 4.11713 17.3594 2.57812Z" fill="#64778E"/>
<path opacity="0.994" fill-rule="evenodd" clip-rule="evenodd" d="M14.6094 1.89062C14.7078 2.50144 14.9369 3.07436 15.2969 3.60938C14.439 4.43609 14.4964 5.23817 15.4688 6.01562C15.6111 5.85839 15.7829 5.74382 15.9844 5.67188C16.7733 6.00689 17.4608 6.46522 18.0469 7.04688C18.5819 6.68693 19.1548 6.45779 19.7656 6.35938C19.8761 7.20431 20.2199 7.94908 20.7969 8.59375C20.3386 9.96875 20.3386 11.3438 20.7969 12.7188C19.8519 16.7533 17.2738 19.446 13.0625 20.7969C11.6875 20.3386 10.3125 20.3386 8.9375 20.7969C8.39881 20.3307 7.76861 20.1015 7.04688 20.1094C7.01975 19.3647 6.79061 18.6772 6.35938 18.0469C7.2172 17.2202 7.1599 16.4181 6.1875 15.6406C5.2327 16.0481 4.71708 15.7043 4.64062 14.6094C3.63773 14.563 2.72107 14.7922 1.89062 15.2969C1.7801 14.4519 1.43635 13.7072 0.859375 13.0625C1.31771 11.6875 1.31771 10.3125 0.859375 8.9375C1.80433 4.90294 4.38247 2.21023 8.59375 0.859375C9.96875 1.31771 11.3438 1.31771 12.7188 0.859375C13.3575 1.23953 13.9877 1.58329 14.6094 1.89062Z" fill="#C8D9F0"/>
<path fill-rule="evenodd" clip-rule="evenodd" d="M14.9531 8.07836C15.2544 8.03337 15.4836 8.14797 15.6406 8.42211C14.599 9.64301 13.3386 10.9607 11.8594 12.3752C10.7792 12.3451 9.91987 11.8294 9.28125 10.8284C8.42188 11.6877 7.5625 12.5471 6.70312 13.4065C6.41723 13.6429 6.18805 13.5856 6.01562 13.2346C7.04138 12.0368 8.12993 10.8909 9.28125 9.79711C9.96875 10.4846 10.6562 11.1721 11.3438 11.8596C12.1514 10.9945 13.0107 10.1924 13.9219 9.45336C13.8073 9.22418 13.6927 8.99504 13.5781 8.76586C14.0763 8.5349 14.5346 8.30572 14.9531 8.07836Z" fill="#D97C83"/>
<path opacity="0.925" fill-rule="evenodd" clip-rule="evenodd" d="M7.04688 20.1094C5.8255 20.3762 4.67964 20.8345 3.60938 21.4844C2.66164 20.897 1.63039 20.4959 0.515625 20.2812C0.447659 19.1506 0.333076 18.0048 0.171875 16.8437C0.252816 16.5436 0.3674 16.2571 0.515625 15.9844C1.01377 15.7534 1.47211 15.5242 1.89062 15.2969C2.72107 14.7922 3.63773 14.563 4.64062 14.6094C4.71707 15.7043 5.2327 16.0481 6.1875 15.6406C7.1599 16.4181 7.2172 17.2201 6.35938 18.0469C6.79061 18.6772 7.01975 19.3647 7.04688 20.1094ZM2.92188 17.0156C4.52323 16.8488 4.98159 17.479 4.29688 18.9062C2.65655 19.1848 2.19822 18.5546 2.92188 17.0156Z" fill="#65788F"/>
</g>
<defs>
<clipPath id="clip0_1029_12895">
<rect width="22" height="22" fill="white"/>
</clipPath>
</defs>
</svg>
