<svg width="22" height="22" viewBox="0 0 22 22" fill="none" xmlns="http://www.w3.org/2000/svg">
<path d="M2 4.1598V6.7998H11.24H20.48V4.1598V1.5198H11.24H2V4.1598ZM5.08 4.1598C5.08 4.3798 4.904 4.5998 4.64 4.5998C4.42 4.5998 4.2 4.3798 4.2 4.1598C4.2 3.8958 4.42 3.71981 4.64 3.71981C4.904 3.71981 5.08 3.8958 5.08 4.1598ZM6.84 4.1598C6.84 4.3798 6.664 4.5998 6.4 4.5998C6.18 4.5998 5.96 4.3798 5.96 4.1598C5.96 3.8958 6.18 3.71981 6.4 3.71981C6.664 3.71981 6.84 3.8958 6.84 4.1598ZM8.6 4.1598C8.6 4.3798 8.424 4.5998 8.16 4.5998C7.94 4.5998 7.72 4.3798 7.72 4.1598C7.72 3.8958 7.94 3.71981 8.16 3.71981C8.424 3.71981 8.6 3.8958 8.6 4.1598Z" fill="#0A6699"/>
<path d="M2 14.06V20H11.24H20.48V14.06C20.48 10.408 20.304 8.12 20.04 8.12C19.776 8.12 19.6 10.232 19.6 13.62V19.12H11.24H2.88V13.62C2.88 10.232 2.704 8.12 2.44 8.12C2.176 8.12 2 10.408 2 14.06Z" fill="#0A6699"/>
<path d="M4.19922 12.9598V17.7998H7.49922H10.7992V12.9598V8.1198H7.49922H4.19922V12.9598Z" fill="#0A6699"/>
<path d="M12.1172 8.56C12.1172 8.824 13.4372 9 15.1972 9C16.9572 9 18.2772 8.824 18.2772 8.56C18.2772 8.296 16.9572 8.12 15.1972 8.12C13.4372 8.12 12.1172 8.296 12.1172 8.56Z" fill="#0A6699"/>
<path d="M12.1172 10.7602C12.1172 11.0242 13.4372 11.2002 15.1972 11.2002C16.9572 11.2002 18.2772 11.0242 18.2772 10.7602C18.2772 10.4962 16.9572 10.3202 15.1972 10.3202C13.4372 10.3202 12.1172 10.4962 12.1172 10.7602Z" fill="#0A6699"/>
<path d="M12.1172 12.9599C12.1172 13.2239 13.4372 13.3999 15.1972 13.3999C16.9572 13.3999 18.2772 13.2239 18.2772 12.9599C18.2772 12.6959 16.9572 12.5199 15.1972 12.5199C13.4372 12.5199 12.1172 12.6959 12.1172 12.9599Z" fill="#0A6699"/>
<path d="M12.1172 15.1601C12.1172 15.4241 13.4372 15.6001 15.1972 15.6001C16.9572 15.6001 18.2772 15.4241 18.2772 15.1601C18.2772 14.8961 16.9572 14.7201 15.1972 14.7201C13.4372 14.7201 12.1172 14.8961 12.1172 15.1601Z" fill="#0A6699"/>
<path d="M12.1172 17.3598C12.1172 17.6238 13.4372 17.7998 15.1972 17.7998C16.9572 17.7998 18.2772 17.6238 18.2772 17.3598C18.2772 17.0958 16.9572 16.9198 15.1972 16.9198C13.4372 16.9198 12.1172 17.0958 12.1172 17.3598Z" fill="#0A6699"/>
</svg>
