<svg width="12" height="12" viewBox="0 0 12 12" fill="none" xmlns="http://www.w3.org/2000/svg">
<g clip-path="url(#clip0_2034_26105)">
<path d="M1.73148 0.610352C0.906547 0.610352 0.367188 1.15205 0.367188 1.86403C0.367188 2.56029 0.89048 3.11743 1.69983 3.11743H1.71548C2.55656 3.11743 3.07999 2.56029 3.07999 1.86403C3.06426 1.15205 2.55656 0.610352 1.73148 0.610352Z" fill="white"/>
<path d="M0.511719 4.10742H2.92336V11.3629H0.511719V4.10742Z" fill="white"/>
<path d="M8.84289 3.93848C7.5419 3.93848 6.66952 5.16098 6.66952 5.16098V4.10876H4.25781V11.3643H6.66938V7.31252C6.66938 7.09561 6.6851 6.87904 6.74883 6.72393C6.92316 6.29079 7.31991 5.84207 7.98616 5.84207C8.85882 5.84207 9.20784 6.50743 9.20784 7.48281V11.3643H11.6193V7.2041C11.6193 4.97552 10.4295 3.93848 8.84289 3.93848Z" fill="white"/>
</g>
<defs>
<clipPath id="clip0_2034_26105">
<rect width="12" height="12" fill="white" transform="translate(0 0.000976562)"/>
</clipPath>
</defs>
</svg>
