<svg width="14" height="14" viewBox="0 0 14 14" fill="none" xmlns="http://www.w3.org/2000/svg">
<g clip-path="url(#clip0_2034_26102)">
<path d="M4.64827 12.068C9.42446 12.068 12.0364 8.11111 12.0364 4.67995C12.0364 4.56757 12.034 4.45565 12.029 4.34435C12.536 3.97779 12.9766 3.52037 13.3243 2.99971C12.859 3.20659 12.3583 3.34568 11.8331 3.4086C12.3692 3.08701 12.7808 2.5785 12.9749 1.97232C12.4732 2.26976 11.9176 2.48586 11.3261 2.60257C10.8522 2.09786 10.1776 1.78223 9.43058 1.78223C7.99669 1.78223 6.83378 2.94506 6.83378 4.37849C6.83378 4.58235 6.85661 4.78049 6.90111 4.97059C4.74301 4.862 2.82925 3.8288 1.54869 2.25761C1.32578 2.64127 1.19714 3.08709 1.19714 3.56278C1.19714 4.46355 1.65558 5.25897 2.35263 5.72414C1.92663 5.71106 1.52647 5.59411 1.17663 5.39945C1.17625 5.41036 1.17625 5.42097 1.17625 5.43258C1.17625 6.69015 2.07128 7.74014 3.25958 7.97806C3.04132 8.03743 2.81168 8.06939 2.57484 8.06939C2.40781 8.06939 2.24497 8.05299 2.08676 8.02257C2.41733 9.05429 3.37599 9.80506 4.51251 9.82611C3.62375 10.5227 2.50417 10.9376 1.28739 10.9376C1.0781 10.9376 0.871218 10.9256 0.667969 10.9016C1.81718 11.6382 3.1818 12.0681 4.64835 12.0681" fill="white"/>
</g>
<defs>
<clipPath id="clip0_2034_26102">
<rect width="13.5" height="13.5" fill="white" transform="translate(0.25 0.25)"/>
</clipPath>
</defs>
</svg>
