<svg width="20" height="21" viewBox="0 0 20 21" fill="none" xmlns="http://www.w3.org/2000/svg">
<path fill-rule="evenodd" clip-rule="evenodd" d="M2.70964 14.4584V5.89844C2.70964 5.55344 2.98964 5.27344 3.33464 5.27344H4.4063C4.7513 5.27344 5.0313 5.55344 5.0313 5.89844C5.0313 6.24344 4.7513 6.52344 4.4063 6.52344H3.95964V14.4584H7.5013C7.8463 14.4584 8.1263 14.7384 8.1263 15.0834C8.1263 15.1984 8.2188 15.2918 8.3338 15.2918H11.6688C11.7838 15.2918 11.8763 15.1993 11.8763 15.0843C11.8763 14.7393 12.1563 14.4584 12.5013 14.4584H16.043V6.52344H15.5963C15.2513 6.52344 14.9713 6.24344 14.9713 5.89844C14.9713 5.55344 15.2513 5.27344 15.5963 5.27344H16.668C17.013 5.27344 17.293 5.55344 17.293 5.89844V14.4584H18.3346C18.6796 14.4584 18.9596 14.7384 18.9596 15.0834V16.3276C18.9596 16.8268 18.7613 17.3051 18.4088 17.6576C18.0563 18.0101 17.578 18.2084 17.0788 18.2084C15.5313 18.2084 4.4713 18.2084 2.9238 18.2084C2.42464 18.2084 1.9463 18.0101 1.5938 17.6576C1.2413 17.3051 1.04297 16.8268 1.04297 16.3276V15.0834C1.04297 14.7384 1.32297 14.4584 1.66797 14.4584H2.70964ZM17.7096 15.7084H12.9863C12.7521 16.2009 12.2505 16.5418 11.6688 16.5418H8.3338C7.75214 16.5418 7.25047 16.2009 7.0163 15.7084H2.29297V16.3276C2.29297 16.4951 2.35964 16.6551 2.47797 16.7734C2.5963 16.8918 2.7563 16.9584 2.9238 16.9584H17.0788C17.2463 16.9584 17.4063 16.8918 17.5246 16.7734C17.643 16.6551 17.7096 16.4951 17.7096 16.3276V15.7084Z" fill="#FF9200"/>
<path fill-rule="evenodd" clip-rule="evenodd" d="M10 2.78613C7.585 2.78613 5.625 4.74613 5.625 7.16113C5.625 9.5753 7.585 11.5361 10 11.5361C12.415 11.5361 14.375 9.5753 14.375 7.16113C14.375 4.74613 12.415 2.78613 10 2.78613ZM10 4.03613C11.725 4.03613 13.125 5.43613 13.125 7.16113C13.125 8.8853 11.725 10.2861 10 10.2861C8.275 10.2861 6.875 8.8853 6.875 7.16113C6.875 5.43613 8.275 4.03613 10 4.03613Z" fill="#FF9200"/>
<path fill-rule="evenodd" clip-rule="evenodd" d="M11.1538 7.48607C11.2771 7.42441 11.3546 7.29857 11.3546 7.16107C11.3546 7.02274 11.2771 6.89691 11.1538 6.83524C10.7046 6.61024 10.1146 6.31524 9.69464 6.10607C9.58214 6.04941 9.44797 6.05524 9.34047 6.12191C9.23297 6.18774 9.16797 6.30524 9.16797 6.43107V7.89024C9.16797 8.01607 9.23297 8.13357 9.34047 8.19941C9.44797 8.26607 9.58214 8.27191 9.69464 8.21607C10.1146 8.00607 10.7046 7.71107 11.1538 7.48607Z" fill="#FF9200"/>
<path fill-rule="evenodd" clip-rule="evenodd" d="M9.16797 13.625H10.8346C11.1796 13.625 11.4596 13.345 11.4596 13C11.4596 12.655 11.1796 12.375 10.8346 12.375H9.16797C8.82297 12.375 8.54297 12.655 8.54297 13C8.54297 13.345 8.82297 13.625 9.16797 13.625Z" fill="#FF9200"/>
</svg>
