<svg width="38" height="46" viewBox="0 0 38 46" fill="none" xmlns="http://www.w3.org/2000/svg">
<path d="M31.1892 44.1544C28.7856 46.5819 26.1613 46.1986 23.6351 45.0488C20.9618 43.8733 18.5092 43.8222 15.6887 45.0488C12.1569 46.633 10.2929 46.1731 8.18367 44.1544C-3.78509 31.3016 -2.01921 11.7285 11.5683 11.0131C14.8793 11.1919 17.1848 12.9039 19.1223 13.0572C22.0164 12.444 24.7879 10.6809 27.8781 10.9108C31.5816 11.2175 34.3776 12.7506 36.217 15.5103C28.5649 20.2885 30.3798 30.7906 37.3943 33.7291C35.9963 37.5619 34.1814 41.3692 31.1647 44.18L31.1892 44.1544ZM18.8771 10.8597C18.5092 5.16157 22.9484 0.459942 28.0498 0C28.7611 6.5925 22.3107 11.4985 18.8771 10.8597Z" fill="white"/>
</svg>
