<svg width="42" height="46" viewBox="0 0 42 46" fill="none" xmlns="http://www.w3.org/2000/svg">
<g clip-path="url(#clip0_1851_5045)">
<path d="M19.3644 21.9297L0.171875 42.1087C0.387405 42.8752 0.77472 43.5821 1.30421 44.1754C1.8337 44.7687 2.49135 45.2326 3.22689 45.5317C3.96243 45.8308 4.75637 45.9572 5.54804 45.9012C6.33971 45.8452 7.10814 45.6083 7.79459 45.2086L29.3898 32.866L19.3644 21.9297Z" fill="#EA4335"/>
<path d="M38.772 18.4997L29.4335 13.1318L18.9219 22.3887L29.4763 32.8371L38.7437 27.5267C39.5646 27.0953 40.2523 26.4467 40.7321 25.651C41.2119 24.8554 41.4656 23.9431 41.4656 23.0131C41.4656 22.0831 41.2119 21.1709 40.7321 20.3753C40.2523 19.5796 39.5646 18.9309 38.7437 18.4995L38.772 18.4997Z" fill="#FBBC04"/>
<path d="M0.17174 3.81787C0.0557997 4.24827 -0.00194766 4.69237 5.01083e-05 5.13822V40.7885C0.00119494 41.2342 0.058889 41.678 0.17174 42.1091L20.0222 22.4467L0.17174 3.81787Z" fill="#4285F4"/>
<path d="M19.5074 22.9633L29.4327 13.1321L7.86618 0.731946C7.05475 0.255075 6.13188 0.00252361 5.19154 9.96889e-06C2.85802 -0.00454127 0.806481 1.54971 0.171875 3.80338L19.5074 22.9633Z" fill="#34A853"/>
</g>
<defs>
<clipPath id="clip0_1851_5045">
<rect width="41.4648" height="46" fill="white"/>
</clipPath>
</defs>
</svg>
